<svg width="592" height="224" viewBox="0 0 592 224" fill="none" xmlns="http://www.w3.org/2000/svg">
<path d="M20 16C20 52.3152 19.833 88.7008 18.7778 125C18.361 139.339 16.9944 153.855 14.5556 168C12.7783 178.308 11.9034 189.048 9.55556 199.222C7.87473 206.506 4.59194 213.213 2.44445 220.333C0.91457 225.406 3.48323 217.339 3.88889 216.556C21.1922 183.142 54.5479 158.356 83 135.167C129.695 97.1093 181.396 67.1882 240.167 52.6111C295.619 38.8571 351.292 36.5753 408.111 41.6667C434.289 44.0123 460.412 48.1263 485.611 55.7222C503.051 60.9793 521.684 66.0432 537.444 75.4444C548.35 81.9493 559.894 89.3219 567.5 99.7222C575.005 109.984 580.901 122.142 585.111 134.111C589.974 147.937 593.43 165.297 583.111 177.444C574.926 187.08 561.824 193.89 550.444 198.778C530.346 207.41 508.777 212.341 487.333 216.222C433.901 225.892 379.452 219.147 327.556 204.333C302.652 197.225 277.75 189.529 253.444 180.556C234.564 173.585 216.45 164.713 197.611 157.667C172.05 148.106 148.157 138.476 124.778 124.056C106.663 112.882 92.3208 97.6969 75.2222 85.3333C63.9503 77.1829 52.4894 68.8727 42.8333 58.7778C38.5787 54.3298 34.6571 49.5906 30.5 45.0556C28.2922 42.647 25.4359 40.8718 24 38" stroke="black" stroke-width="3" stroke-linecap="round"/>
<path d="M494 137C483.272 141.186 479.34 133.259 476 124.222C472.793 115.545 481.982 108 490.444 108C494.923 108 504.714 118.001 505 123C505.319 128.583 501.234 132.492 497.389 136.056C493.815 139.368 489.726 144.425 485 146" stroke="black" stroke-width="3" stroke-linecap="round"/>
<path d="M419 83C396.212 87.9539 381.601 107.132 380.222 129.889C379.647 139.378 383.274 147.892 391.167 153.5C396.838 157.53 403.687 158.475 410 161" stroke="black" stroke-width="3" stroke-linecap="round"/>
<path d="M235 50C218.457 47.0978 200.688 44.3646 185.667 36.4444C183.146 35.1155 176.431 32.2682 176.056 28.8889C175.472 23.6368 178.61 19.2909 182.389 16C200.623 0.118313 228.457 -1.53554 249.667 9.11111C264.321 16.4671 275.577 27.5772 287 39" stroke="black" stroke-width="3" stroke-linecap="round"/>
<path d="M213 158C199.91 163.162 187.585 170.54 175.444 177.611C172.602 179.266 149.974 190.613 157.556 196.444C161.934 199.812 168.11 199.944 173.333 200.444C187.043 201.759 200.723 202.767 214.5 202.944C236.28 203.225 257.852 201.287 279 196" stroke="black" stroke-width="3" stroke-linecap="round"/>
<path d="M453 157C454.642 165.03 457.516 168.511 464.389 173.389C482.072 185.938 503.056 191.823 524.111 195.833C526.473 196.283 544.006 200.988 546 197" stroke="black" stroke-width="3" stroke-linecap="round"/>
<path d="M30 88C49.8782 92.9695 66.8745 104 88 104" stroke="black" stroke-width="3" stroke-linecap="round"/>
<path d="M29 124C41.0409 119.736 54.5832 119.13 67.1111 117.056C77.7395 115.295 88.2569 113.767 99 113" stroke="black" stroke-width="3" stroke-linecap="round"/>
<path d="M17 151C30.8152 140.754 45.3593 131.22 61.7778 125.667C66.1374 124.192 71.3234 122 76 122" stroke="black" stroke-width="3" stroke-linecap="round"/>
</svg>
